<svg version="1.1" xmlns="http://www.w3.org/2000/svg" viewBox="0 0 1450 710.5" width="1450" height="710.5">
  <!-- svg-source:excalidraw -->
  
  <defs>
    <style class="style-fonts">
      @font-face {
        font-family: "Virgil";
        src: url("https://excalidraw.com/Virgil.woff2");
      }
      @font-face {
        font-family: "Cascadia";
        src: url("https://excalidraw.com/Cascadia.woff2");
      }
    </style>
    
  </defs>
  <g stroke-linecap="round" transform="translate(226.25000000000017 223.75) rotate(0 221.00000000000006 138)"><path d="M32 0 M32 0 C147.85 -1.78, 262.11 -0.27, 410 0 M32 0 C167.44 0.63, 301.95 0.06, 410 0 M410 0 C430.75 0.2, 442.85 9.38, 442 32 M410 0 C430 -1.96, 441.69 12.4, 442 32 M442 32 C441.68 87.5, 441.37 139.99, 442 244 M442 32 C443.64 96.73, 443.31 163.1, 442 244 M442 244 C440.7 264.06, 432.78 277.68, 410 276 M442 244 C444.21 263.67, 430.66 277.64, 410 276 M410 276 C283.96 273.98, 160.18 273.04, 32 276 M410 276 C292.98 274.14, 175.77 274.65, 32 276 M32 276 C11.33 276.56, -0.32 264.9, 0 244 M32 276 C11.55 274.89, -0.57 264.37, 0 244 M0 244 C-3.02 168.7, -0.41 94.16, 0 32 M0 244 C0 182.16, -1.7 121.97, 0 32 M0 32 C-0.18 9.13, 8.97 -0.13, 32 0 M0 32 C-0.63 9.32, 8.97 -1.99, 32 0" stroke="#9c36b5" stroke-width="1" fill="none"></path></g><g transform="translate(252.25000000000017 240.5) rotate(0 61.45833206176758 12.5)"><text x="0" y="0" font-family="Virgil, Segoe UI Emoji" font-size="20px" fill="#9c36b5" text-anchor="start" style="white-space: pre;" direction="ltr" dominant-baseline="text-before-edge">Raspberry Pi</text></g><g stroke-linecap="round" transform="translate(234.75 40.5) rotate(0 74.99999999999997 83.5)"><path d="M32 0 M32 0 C62.41 -0.89, 91.65 0.5, 118 0 M32 0 C63.24 0.37, 94.57 0.73, 118 0 M118 0 C138.01 -0.3, 151.13 11.81, 150 32 M118 0 C140.42 -1.86, 150.86 11.25, 150 32 M150 32 C149.29 60.45, 149.17 93.35, 150 135 M150 32 C150.43 53.34, 148.83 76.12, 150 135 M150 135 C150.04 154.51, 139.77 166.01, 118 167 M150 135 C149.96 157.32, 138.53 166.07, 118 167 M118 167 C85.33 166.34, 51.15 167.26, 32 167 M118 167 C88.71 166.04, 58.55 165.43, 32 167 M32 167 C11.76 167.07, -1.25 156.21, 0 135 M32 167 C11.64 168.39, 1.7 156.94, 0 135 M0 135 C1.3 105.56, -0.51 78.32, 0 32 M0 135 C1.08 98.09, 0.23 61.78, 0 32 M0 32 C0.95 9.63, 10.23 1.92, 32 0 M0 32 C0.62 9.6, 9.28 -1.71, 32 0" stroke="#9c36b5" stroke-width="1" fill="none"></path></g><g transform="translate(262.57500076293945 99) rotate(0 47.17499923706055 25)"><text x="47.17499923706055" y="0" font-family="Virgil, Segoe UI Emoji" font-size="20px" fill="#9c36b5" text-anchor="middle" style="white-space: pre;" direction="ltr" dominant-baseline="text-before-edge">Charge </text><text x="47.17499923706055" y="25" font-family="Virgil, Segoe UI Emoji" font-size="20px" fill="#9c36b5" text-anchor="middle" style="white-space: pre;" direction="ltr" dominant-baseline="text-before-edge">Controller</text></g><g stroke-linecap="round" transform="translate(228.25000000000017 272.5) rotate(0 13.5 26)"><path d="M6.75 0 M6.75 0 C11.33 0.78, 12.93 -0.78, 20.25 0 M6.75 0 C11.27 -0.53, 14.66 -0.44, 20.25 0 M20.25 0 C25.1 1.13, 26.4 0.54, 27 6.75 M20.25 0 C25.44 -0.5, 28.45 2.3, 27 6.75 M27 6.75 C26.59 22.1, 27.42 32.83, 27 45.25 M27 6.75 C27.32 16.31, 26.37 25.82, 27 45.25 M27 45.25 C27.97 51.69, 23.9 53.26, 20.25 52 M27 45.25 C27.36 50.2, 26.73 53.09, 20.25 52 M20.25 52 C15.99 52.18, 9.45 51.45, 6.75 52 M20.25 52 C16.57 51.93, 11.29 52.67, 6.75 52 M6.75 52 C2.66 50.42, 1.91 51.54, 0 45.25 M6.75 52 C1.54 53.58, 1.59 49.6, 0 45.25 M0 45.25 C-0.2 36.17, 1.12 26.8, 0 6.75 M0 45.25 C0.35 33.81, -0.31 21.67, 0 6.75 M0 6.75 C1.6 3.67, 4.08 -1.51, 6.75 0 M0 6.75 C0.32 4.18, 2.47 1.69, 6.75 0" stroke="#9c36b5" stroke-width="1" fill="none"></path></g><g stroke-linecap="round" transform="translate(10 166.75) rotate(0 56.5 48.5)"><path d="M24.25 0 M24.25 0 C41.73 2.55, 56.43 1.86, 88.75 0 M24.25 0 C45.09 -0.04, 65.68 -1.2, 88.75 0 M88.75 0 C105.63 0.4, 111.04 7.4, 113 24.25 M88.75 0 C105.22 -1.63, 114.89 9.93, 113 24.25 M113 24.25 C113.04 35.94, 114.55 52.58, 113 72.75 M113 24.25 C113.27 36.81, 113.72 50.5, 113 72.75 M113 72.75 C112.95 89.47, 106.19 97.82, 88.75 97 M113 72.75 C113.3 86.78, 104.55 96.99, 88.75 97 M88.75 97 C67.09 98.75, 44.06 95.82, 24.25 97 M88.75 97 C69.23 97.8, 48.72 96.61, 24.25 97 M24.25 97 C7.63 98.44, 0.46 89.62, 0 72.75 M24.25 97 C6.33 96.13, -0.57 88.89, 0 72.75 M0 72.75 C0.52 56.58, -1.53 43.26, 0 24.25 M0 72.75 C-0.03 60.32, 0.07 46.43, 0 24.25 M0 24.25 C-1.07 9.72, 8.83 -0.13, 24.25 0 M0 24.25 C-1.54 6.09, 8.45 -1.68, 24.25 0" stroke="#9c36b5" stroke-width="1" fill="none"></path></g><g transform="translate(20.24166488647461 195.25) rotate(0 46.25833511352539 20)"><text x="46.25833511352539" y="0" font-family="Virgil, Segoe UI Emoji" font-size="16px" fill="#9c36b5" text-anchor="middle" style="white-space: pre;" direction="ltr" dominant-baseline="text-before-edge">USB Serial </text><text x="46.25833511352539" y="20" font-family="Virgil, Segoe UI Emoji" font-size="16px" fill="#9c36b5" text-anchor="middle" style="white-space: pre;" direction="ltr" dominant-baseline="text-before-edge">Adapter</text></g><g stroke-linecap="round" transform="translate(419.25000000000017 363.5) rotate(0 118.5 60)"><path d="M148.75 15.25 M148.75 15.25 C163.1 22.44, 175.16 31.24, 207.25 45.75 M148.75 15.25 C161.13 21.46, 174.3 29.17, 207.25 45.75 M207.25 45.75 C236.58 60.52, 238.25 60.61, 207.25 76.25 M207.25 45.75 C238.95 62.46, 238.46 62.86, 207.25 76.25 M207.25 76.25 C184.76 84.85, 165.44 98.21, 148.75 104.75 M207.25 76.25 C186.39 86.3, 166.33 95.64, 148.75 104.75 M148.75 104.75 C120.24 118.59, 117.3 120.02, 89.25 104.75 M148.75 104.75 C117.25 121.04, 120.95 119.14, 89.25 104.75 M89.25 104.75 C73.7 97.71, 59.24 90.4, 29.75 76.25 M89.25 104.75 C72.09 97.17, 56.81 88.3, 29.75 76.25 M29.75 76.25 C-0.17 60.95, -1.53 60.19, 29.75 45.75 M29.75 76.25 C0.69 59.35, 1.24 60.52, 29.75 45.75 M29.75 45.75 C47.69 36.35, 65.9 25.32, 89.25 15.25 M29.75 45.75 C41.56 38.47, 53.39 33.03, 89.25 15.25 M89.25 15.25 C120.44 -0.51, 120.69 0.1, 148.75 15.25 M89.25 15.25 C117.81 1.38, 117.15 -1.82, 148.75 15.25" stroke="#9c36b5" stroke-width="1" fill="none"></path></g><g transform="translate(487.9249992370607 411) rotate(0 50.07500076293945 12.5)"><text x="50.07500076293945" y="0" font-family="Virgil, Segoe UI Emoji" font-size="20px" fill="#9c36b5" text-anchor="middle" style="white-space: pre;" direction="ltr" dominant-baseline="text-before-edge">SolarThing</text></g><g stroke-linecap="round" transform="translate(743.75 65) rotate(0 247 228.125)"><path d="M32 0 M32 0 C197.25 0.6, 363.62 0.52, 462 0 M32 0 C184.19 0.03, 336.53 -0.29, 462 0 M462 0 C482.89 1.95, 494.65 12.18, 494 32 M462 0 C482.7 -0.39, 491.98 12.94, 494 32 M494 32 C492.93 169.55, 493.28 307.65, 494 424.25 M494 32 C492.87 187.31, 493.43 342.07, 494 424.25 M494 424.25 C495.78 446.25, 482.53 457.43, 462 456.25 M494 424.25 C493.92 443.52, 482.96 454.54, 462 456.25 M462 456.25 C340.54 453.33, 219.64 454.02, 32 456.25 M462 456.25 C343.26 455, 224.66 454.55, 32 456.25 M32 456.25 C9.61 456.5, 1.73 444.19, 0 424.25 M32 456.25 C12.67 457.75, -1.52 445.18, 0 424.25 M0 424.25 C-0.07 273.88, -0.05 124.18, 0 32 M0 424.25 C0.9 343.65, 0.96 263.12, 0 32 M0 32 C-0.22 10.22, 11.24 -0.9, 32 0 M0 32 C1.92 12.77, 12.29 -1.18, 32 0" stroke="#9c36b5" stroke-width="1" fill="none"></path></g><g transform="translate(777.1499996185303 88) rotate(0 30.850000381469727 12.5)"><text x="30.850000381469727" y="0" font-family="Virgil, Segoe UI Emoji" font-size="20px" fill="#9c36b5" text-anchor="middle" style="white-space: pre;" direction="ltr" dominant-baseline="text-before-edge">Server</text></g><g stroke-linecap="round" transform="translate(752 375) rotate(0 121 44.5)"><path d="M152.5 11.25 M152.5 11.25 C167.19 18.26, 183.93 22.06, 211.5 33.75 M152.5 11.25 C174.92 19.51, 198.18 27.83, 211.5 33.75 M211.5 33.75 C242.09 46.25, 241.45 46.6, 211.5 56.25 M211.5 33.75 C242.37 43.28, 244.29 44.97, 211.5 56.25 M211.5 56.25 C188.09 65.98, 168.18 73.75, 152.5 77.75 M211.5 56.25 C197.4 61.25, 181 68.03, 152.5 77.75 M152.5 77.75 C120.15 87.18, 121.09 89.72, 91.5 77.75 M152.5 77.75 C123.14 88.69, 124.2 90.17, 91.5 77.75 M91.5 77.75 C66.77 71.63, 47.17 60.27, 30.5 56.25 M91.5 77.75 C76.77 73.02, 60.56 67.48, 30.5 56.25 M30.5 56.25 C0.67 46.7, 0.02 44.49, 30.5 33.75 M30.5 56.25 C-0.92 43.18, 1.89 46.71, 30.5 33.75 M30.5 33.75 C49.05 25.71, 67.42 17.18, 91.5 11.25 M30.5 33.75 C46.89 27.66, 61.54 20.85, 91.5 11.25 M91.5 11.25 C123.82 -1.46, 120.37 -1.28, 152.5 11.25 M91.5 11.25 C124.2 -1.62, 121.87 2, 152.5 11.25" stroke="#9c36b5" stroke-width="1" fill="none"></path></g><g transform="translate(830.3083343505859 407.25) rotate(0 42.69166564941406 12.5)"><text x="42.69166564941406" y="0" font-family="Virgil, Segoe UI Emoji" font-size="20px" fill="#9c36b5" text-anchor="middle" style="white-space: pre;" direction="ltr" dominant-baseline="text-before-edge">CouchDB</text></g><g mask="url(#mask-QqQGIuy5jrkSk58-Cf0HW)" stroke-linecap="round"><g transform="translate(625.7973800498601 397.3594329366381) rotate(0 82.72138620263007 -1.8346491625036947)"><path d="M0.16 -0.35 C28.04 -0.63, 138.71 -1.2, 166.65 -1.79 M-1.21 -1.58 C26.55 -2.15, 137.5 -3.07, 165.63 -3.32" stroke="#9c36b5" stroke-width="1" fill="none"></path></g><g transform="translate(625.7973800498601 397.3594329366381) rotate(0 82.72138620263007 -1.8346491625036947)"><path d="M136.95 6.96 C146.4 6.25, 149.85 0.57, 164.68 -1.58 M137.1 7.67 C146.25 3.42, 156.05 0.45, 166.56 -3.06" stroke="#9c36b5" stroke-width="1" fill="none"></path></g><g transform="translate(625.7973800498601 397.3594329366381) rotate(0 82.72138620263007 -1.8346491625036947)"><path d="M136.77 -13.56 C146.24 -9.18, 149.74 -9.79, 164.68 -1.58 M136.92 -12.85 C146.06 -10.25, 155.92 -6.37, 166.56 -3.06" stroke="#9c36b5" stroke-width="1" fill="none"></path></g></g><mask id="mask-QqQGIuy5jrkSk58-Cf0HW"><rect x="0" y="0" fill="#fff" width="892.586387318828" height="500.28989261449783"></rect><rect x="682.4085508596371" y="383.3942030977082" fill="#000" width="53.56666564941406" height="25" opacity="1"></rect></mask><g transform="translate(682.4085508596371 383.3942030977082) rotate(0 26.11021539285315 12.130580676426177)"><text x="26.78333282470703" y="0" font-family="Virgil, Segoe UI Emoji" font-size="20px" fill="#9c36b5" text-anchor="middle" style="white-space: pre;" direction="ltr" dominant-baseline="text-before-edge">Data</text></g><g mask="url(#mask-dCdfEOUkJG1e1uxDwXfef)" stroke-linecap="round"><g transform="translate(263.25000000000017 303.5) rotate(0 99.3868785911256 40.07640964349565)"><path d="M-0.38 1.01 C32.93 13.98, 166.03 65.52, 199.15 78.62 M1.62 0.5 C34.85 13.52, 165.67 66.25, 198.27 79.65" stroke="#9c36b5" stroke-width="1" fill="none"></path></g><g transform="translate(263.25000000000017 303.5) rotate(0 99.3868785911256 40.07640964349565)"><path d="M31.3 1.84 C20.83 0.25, 15.25 -0.7, 1.25 2.29 M29.26 2.48 C22.44 1.76, 14.66 1.45, 0.47 1.55" stroke="#9c36b5" stroke-width="1" fill="none"></path></g><g transform="translate(263.25000000000017 303.5) rotate(0 99.3868785911256 40.07640964349565)"><path d="M23.88 20.97 C15.05 14.82, 11.25 9.28, 1.25 2.29 M21.83 21.61 C16.93 15.84, 11.11 10.48, 0.47 1.55" stroke="#9c36b5" stroke-width="1" fill="none"></path></g><g transform="translate(263.25000000000017 303.5) rotate(0 99.3868785911256 40.07640964349565)"><path d="M169.98 78.74 C173.88 77.75, 182.67 77.21, 199.89 80.92 M167.93 79.38 C176.93 79.03, 184.96 79.17, 199.12 80.19" stroke="#9c36b5" stroke-width="1" fill="none"></path></g><g transform="translate(263.25000000000017 303.5) rotate(0 99.3868785911256 40.07640964349565)"><path d="M177.7 59.72 C179.88 63.27, 186.82 67.29, 199.89 80.92 M175.65 60.36 C182.65 65.04, 188.65 70.2, 199.12 80.19" stroke="#9c36b5" stroke-width="1" fill="none"></path></g></g><mask id="mask-dCdfEOUkJG1e1uxDwXfef"><rect x="0" y="0" fill="#fff" width="562.2891576023808" height="483.075110074744"></rect><rect x="305.7779139147159" y="330.78755503737193" fill="#000" width="113.98332977294922" height="25" opacity="1"></rect></mask><g transform="translate(305.7779139147159 330.78755503737193) rotate(0 56.858964676409926 12.788854606123664)"><text x="56.99166488647461" y="0" font-family="Virgil, Segoe UI Emoji" font-size="20px" fill="#9c36b5" text-anchor="middle" style="white-space: pre;" direction="ltr" dominant-baseline="text-before-edge">Serial Comm</text></g><g stroke-linecap="round" transform="translate(944 251.25) rotate(0 134.5 60)"><path d="M168.75 15.25 M168.75 15.25 C188.82 24.31, 213.62 35.1, 235.25 45.75 M168.75 15.25 C190.44 25.36, 211.97 34.76, 235.25 45.75 M235.25 45.75 C268.02 62.45, 267.19 60.07, 235.25 76.25 M235.25 45.75 C268.41 62.22, 268.07 60.65, 235.25 76.25 M235.25 76.25 C209.7 85.74, 185.37 97.01, 168.75 104.75 M235.25 76.25 C214.23 84.57, 193.1 94.08, 168.75 104.75 M168.75 104.75 C134.65 118.76, 135.54 121.52, 101.25 104.75 M168.75 104.75 C136.21 121.27, 135.72 121.16, 101.25 104.75 M101.25 104.75 C77.26 93.95, 53.55 85.51, 33.75 76.25 M101.25 104.75 C80.63 95.83, 59.21 87.42, 33.75 76.25 M33.75 76.25 C-0.49 61.37, 0.19 60.43, 33.75 45.75 M33.75 76.25 C2.16 61.76, -1.65 62.67, 33.75 45.75 M33.75 45.75 C54.16 36.87, 76.4 25.19, 101.25 15.25 M33.75 45.75 C59.56 33.13, 86.9 20.58, 101.25 15.25 M101.25 15.25 C135.47 0.55, 134.48 1.53, 168.75 15.25 M101.25 15.25 C137.19 -0.2, 134.61 1.54, 168.75 15.25" stroke="#9c36b5" stroke-width="1" fill="none"></path></g><g transform="translate(1023.6749992370605 286.25) rotate(0 55.07500076293945 25)"><text x="55.07500076293945" y="0" font-family="Virgil, Segoe UI Emoji" font-size="20px" fill="#9c36b5" text-anchor="middle" style="white-space: pre;" direction="ltr" dominant-baseline="text-before-edge">SolarThing </text><text x="55.07500076293945" y="25" font-family="Virgil, Segoe UI Emoji" font-size="20px" fill="#9c36b5" text-anchor="middle" style="white-space: pre;" direction="ltr" dominant-baseline="text-before-edge">Server</text></g><g stroke-linecap="round"><g transform="translate(922.9621395521935 383.35384471134387) rotate(0 23.294484608223456 -23.111709641536578)"><path d="M0.08 0.91 C8.13 -6.75, 40.16 -37.69, 47.93 -45.42 M-1.34 0.35 C6.63 -7.7, 38.82 -39.17, 47.23 -47.14" stroke="#9c36b5" stroke-width="1" fill="none"></path></g><g transform="translate(922.9621395521935 383.35384471134387) rotate(0 23.294484608223456 -23.111709641536578)"><path d="M35.59 -19.37 C38.79 -28.8, 42.26 -35.25, 48.3 -47.07 M34.07 -20.23 C38.05 -27.17, 41.46 -34.54, 46.94 -46.52" stroke="#9c36b5" stroke-width="1" fill="none"></path></g><g transform="translate(922.9621395521935 383.35384471134387) rotate(0 23.294484608223456 -23.111709641536578)"><path d="M21.34 -34.14 C28.46 -39.59, 35.79 -42.04, 48.3 -47.07 M19.82 -35 C27.29 -38.15, 34.32 -41.77, 46.94 -46.52" stroke="#9c36b5" stroke-width="1" fill="none"></path></g></g><mask></mask><g stroke-linecap="round" transform="translate(991.75 385.75) rotate(0 123.5 50.5)"><path d="M155 12.75 M155 12.75 C172.45 18.85, 189.68 25.75, 216 38.25 M155 12.75 C178.38 22.26, 204.08 32.01, 216 38.25 M216 38.25 C247.38 52.92, 248.97 52.41, 216 63.75 M216 38.25 C249.09 49.68, 245.97 52.2, 216 63.75 M216 63.75 C200.48 68.74, 184.44 78.74, 155 88.25 M216 63.75 C191.71 73.8, 167.51 83.1, 155 88.25 M155 88.25 C124.21 101.42, 123.43 99.27, 93 88.25 M155 88.25 C124 100.13, 124.08 100.63, 93 88.25 M93 88.25 C74.8 80.88, 53.33 71.16, 31 63.75 M93 88.25 C80.46 84.21, 66.56 78.38, 31 63.75 M31 63.75 C1.34 50.26, 0.57 51.61, 31 38.25 M31 63.75 C-1.87 51.29, -1.67 50.4, 31 38.25 M31 38.25 C48.39 30.59, 64.13 23.26, 93 12.75 M31 38.25 C47.55 31.87, 65.27 24.45, 93 12.75 M93 12.75 C122.12 -1.16, 123.94 0.65, 155 12.75 M93 12.75 C124.7 -1.04, 124.22 -0.29, 155 12.75" stroke="#9c36b5" stroke-width="1" fill="none"></path></g><g transform="translate(1073.783332824707 424) rotate(0 41.71666717529297 12.5)"><text x="41.71666717529297" y="0" font-family="Virgil, Segoe UI Emoji" font-size="20px" fill="#9c36b5" text-anchor="middle" style="white-space: pre;" direction="ltr" dominant-baseline="text-before-edge">Grafana</text></g><g stroke-linecap="round"><g transform="translate(1140.9816557735098 356.7042799523375) rotate(0 4.736421921757028 17.407931093948662)"><path d="M0.73 -0.08 C2.18 5.71, 8.46 28.59, 9.82 34.61 M-0.34 -1.16 C0.93 4.81, 7.93 30.08, 9.33 35.98" stroke="#9c36b5" stroke-width="1" fill="none"></path></g><g transform="translate(1140.9816557735098 356.7042799523375) rotate(0 4.736421921757028 17.407931093948662)"><path d="M-1.01 22.46 C2.61 26.78, 8.73 32.82, 8.8 35.91 M-0.61 20.4 C2.15 25.68, 6.32 31.14, 9.56 36.41" stroke="#9c36b5" stroke-width="1" fill="none"></path></g><g transform="translate(1140.9816557735098 356.7042799523375) rotate(0 4.736421921757028 17.407931093948662)"><path d="M10.93 19.36 C9.87 24.97, 11.31 32.22, 8.8 35.91 M11.33 17.3 C10.2 23.54, 10.51 30, 9.56 36.41" stroke="#9c36b5" stroke-width="1" fill="none"></path></g></g><mask></mask><g stroke-linecap="round" transform="translate(942.75 543.75) rotate(0 89 78)"><path d="M32 0 M32 0 C66.09 1.01, 101.52 1.12, 146 0 M32 0 C61.75 1.16, 92.9 -0.25, 146 0 M146 0 C168.03 -0.19, 177.6 8.69, 178 32 M146 0 C165.18 -1.16, 177.25 11.41, 178 32 M178 32 C177.3 58.82, 179.53 86.02, 178 124 M178 32 C178.18 55.77, 177.88 80.81, 178 124 M178 124 C177.43 144.95, 167.64 158, 146 156 M178 124 C179.17 144, 166.47 156.03, 146 156 M146 156 C99.87 157.47, 55.91 158.47, 32 156 M146 156 C121.42 155.48, 96.56 154.94, 32 156 M32 156 C10.44 155.76, 0.86 143.46, 0 124 M32 156 C10.7 154.63, 0.27 144.18, 0 124 M0 124 C2.46 88.63, 1.61 52.86, 0 32 M0 124 C0.91 89.61, 0.15 54.66, 0 32 M0 32 C-0.16 9.72, 8.9 0.42, 32 0 M0 32 C-0.15 12.1, 10.2 1.59, 32 0" stroke="#9c36b5" stroke-width="1" fill="none"></path></g><g transform="translate(950.1666641235352 596.75) rotate(0 81.58333587646484 25)"><text x="81.58333587646484" y="0" font-family="Virgil, Segoe UI Emoji" font-size="20px" fill="#9c36b5" text-anchor="middle" style="white-space: pre;" direction="ltr" dominant-baseline="text-before-edge">Grafana in Web </text><text x="81.58333587646484" y="25" font-family="Virgil, Segoe UI Emoji" font-size="20px" fill="#9c36b5" text-anchor="middle" style="white-space: pre;" direction="ltr" dominant-baseline="text-before-edge">Browser</text></g><g stroke-linecap="round"><g transform="translate(1087.6922918029647 486.06335295616975) rotate(0 -17.291402057653727 20.45887881666249)"><path d="M-0.34 0.53 C-6.47 7.22, -30.31 34.4, -36.26 41.15 M1.68 -0.24 C-4.13 6.64, -27.56 32.95, -34.04 39.51" stroke="#9c36b5" stroke-width="1" fill="none"></path></g><g transform="translate(1087.6922918029647 486.06335295616975) rotate(0 -17.291402057653727 20.45887881666249)"><path d="M-22.71 13.3 C-25.46 22.16, -29.27 32.57, -33.69 38.76 M-24.48 15.06 C-26.59 22.29, -29.63 29.23, -33.41 40.2" stroke="#9c36b5" stroke-width="1" fill="none"></path></g><g transform="translate(1087.6922918029647 486.06335295616975) rotate(0 -17.291402057653727 20.45887881666249)"><path d="M-9.3 25.78 C-16.78 30.31, -25.2 36.42, -33.69 38.76 M-11.07 27.54 C-16.9 31.23, -23.68 34.69, -33.41 40.2" stroke="#9c36b5" stroke-width="1" fill="none"></path></g></g><mask></mask><g stroke-linecap="round" transform="translate(712.0000000000002 545.25) rotate(0 77 74.5)"><path d="M32 0 M32 0 C67.98 -2.21, 104.48 0.2, 122 0 M32 0 C56.77 -1.39, 81.18 -0.33, 122 0 M122 0 C141.38 1.02, 153.68 11.49, 154 32 M122 0 C145.22 1.65, 151.76 12.52, 154 32 M154 32 C152.38 51.52, 152.17 70.05, 154 117 M154 32 C153.53 61.4, 155.24 88.95, 154 117 M154 117 C153.96 138.43, 141.88 149.51, 122 149 M154 117 C152.86 136.86, 142.03 149.76, 122 149 M122 149 C99.69 149.25, 75.04 150.35, 32 149 M122 149 C101.68 149.21, 79.72 149.42, 32 149 M32 149 C8.93 147.69, 0.15 138.62, 0 117 M32 149 C10.41 149.65, 0.74 138.35, 0 117 M0 117 C-1.45 82.86, 1.39 53.4, 0 32 M0 117 C0.64 92.05, 1.21 66.96, 0 32 M0 32 C-1.85 8.85, 9.96 -1.99, 32 0 M0 32 C1.37 8.84, 10.65 2.09, 32 0" stroke="#9c36b5" stroke-width="1" fill="none"></path></g><g transform="translate(733.9249992370608 594.75) rotate(0 55.07500076293945 25)"><text x="55.07500076293945" y="0" font-family="Virgil, Segoe UI Emoji" font-size="20px" fill="#9c36b5" text-anchor="middle" style="white-space: pre;" direction="ltr" dominant-baseline="text-before-edge">SolarThing </text><text x="55.07500076293945" y="25" font-family="Virgil, Segoe UI Emoji" font-size="20px" fill="#9c36b5" text-anchor="middle" style="white-space: pre;" direction="ltr" dominant-baseline="text-before-edge">Android</text></g><g stroke-linecap="round"><g transform="translate(907.9907628475494 456.9468813111563) rotate(0 -41.35319585231662 37.303997260833626)"><path d="M-1.09 -0.42 C-15.02 12.48, -69.59 63.63, -83.25 76.3 M0.54 -1.69 C-13.07 10.96, -67.64 61.46, -81.16 74.55" stroke="#9c36b5" stroke-width="1" fill="none"></path></g><g transform="translate(907.9907628475494 456.9468813111563) rotate(0 -41.35319585231662 37.303997260833626)"><path d="M-68.41 45.75 C-71.17 54.82, -76.79 67.02, -82.08 75.64 M-67.18 48.34 C-71.52 56.72, -76.59 65.52, -81.91 73.96" stroke="#9c36b5" stroke-width="1" fill="none"></path></g><g transform="translate(907.9907628475494 456.9468813111563) rotate(0 -41.35319585231662 37.303997260833626)"><path d="M-54.32 60.68 C-61.57 64.72, -71.81 72.03, -82.08 75.64 M-53.1 63.27 C-62.34 66.73, -72.16 70.5, -81.91 73.96" stroke="#9c36b5" stroke-width="1" fill="none"></path></g></g><mask></mask><g stroke-linecap="round" transform="translate(1270.5 545.5) rotate(0 84.5 77.5)"><path d="M32 0 M32 0 C54.83 0.84, 80.98 -1.02, 137 0 M32 0 C68.76 0.68, 104.52 -1.24, 137 0 M137 0 C160.16 -1.66, 167.33 9.31, 169 32 M137 0 C158.98 0.04, 167.68 9.47, 169 32 M169 32 C168.35 64.72, 168.47 99.97, 169 123 M169 32 C169.15 59.05, 168.4 86.43, 169 123 M169 123 C170.25 143.62, 157.74 156.22, 137 155 M169 123 C167.38 144.47, 159.75 153.71, 137 155 M137 155 C109.42 153.01, 79.12 155.48, 32 155 M137 155 C98.6 154.5, 59.62 154.26, 32 155 M32 155 C10.28 153.61, -1.98 145.72, 0 123 M32 155 C9.85 155.75, 0.69 145.61, 0 123 M0 123 C0.32 91.15, 0.9 60.79, 0 32 M0 123 C-0.04 103.72, 0.56 83.61, 0 32 M0 32 C-1.51 11.6, 10.78 1.46, 32 0 M0 32 C2.1 9.27, 8.61 -1.4, 32 0" stroke="#9c36b5" stroke-width="1" fill="none"></path></g><g transform="translate(1276.9166641235352 598) rotate(0 78.08333587646484 25)"><text x="78.08333587646484" y="0" font-family="Virgil, Segoe UI Emoji" font-size="20px" fill="#9c36b5" text-anchor="middle" style="white-space: pre;" direction="ltr" dominant-baseline="text-before-edge">SolarThing Web </text><text x="78.08333587646484" y="25" font-family="Virgil, Segoe UI Emoji" font-size="20px" fill="#9c36b5" text-anchor="middle" style="white-space: pre;" direction="ltr" dominant-baseline="text-before-edge">in Web Brwoser</text></g><g stroke-linecap="round"><g transform="translate(1193.494174404479 336.61288527173554) rotate(0 47.791014623598016 97.56812440486345)"><path d="M-1.13 -0.55 C15.15 31.88, 80.43 161.8, 96.71 194.06 M0.48 1.77 C16.75 34.48, 80.26 163.68, 96.2 195.69" stroke="#9c36b5" stroke-width="1" fill="none"></path></g><g transform="translate(1193.494174404479 336.61288527173554) rotate(0 47.791014623598016 97.56812440486345)"><path d="M73.59 176.35 C79.46 180.84, 82.43 185.2, 96.31 197.15 M73.9 175.64 C82.63 183.5, 92.14 192.14, 95.44 195.14" stroke="#9c36b5" stroke-width="1" fill="none"></path></g><g transform="translate(1193.494174404479 336.61288527173554) rotate(0 47.791014623598016 97.56812440486345)"><path d="M91.99 167.25 C93.78 173.57, 92.71 179.92, 96.31 197.15 M92.3 166.55 C93.77 177.8, 96.08 190, 95.44 195.14" stroke="#9c36b5" stroke-width="1" fill="none"></path></g></g><mask></mask><g stroke-linecap="round" transform="translate(798.5 120) rotate(0 142 85)"><path d="M178.75 21.5 M178.75 21.5 C197.12 32.89, 218.88 46.9, 248.25 64.5 M178.75 21.5 C199.04 33.75, 217.89 44.22, 248.25 64.5 M248.25 64.5 C283.47 87.67, 284.86 84.76, 248.25 107.5 M248.25 64.5 C285.35 85.69, 285.86 84.16, 248.25 107.5 M248.25 107.5 C226.4 119.08, 200.33 136.05, 178.75 148.5 M248.25 107.5 C225.92 120.95, 202.89 133.46, 178.75 148.5 M178.75 148.5 C141.12 168.61, 141.74 171.41, 107.25 148.5 M178.75 148.5 C145.16 168.19, 142.27 169.33, 107.25 148.5 M107.25 148.5 C85.89 135.94, 62.94 123.81, 35.75 107.5 M107.25 148.5 C90.34 138.38, 73.41 129.04, 35.75 107.5 M35.75 107.5 C1.95 87.23, 1.18 84.43, 35.75 64.5 M35.75 107.5 C0.64 86.39, 1.32 86, 35.75 64.5 M35.75 64.5 C61.13 49.06, 87.44 35.03, 107.25 21.5 M35.75 64.5 C58.47 49.52, 81.32 37.15, 107.25 21.5 M107.25 21.5 C144.48 1.97, 144.54 1.47, 178.75 21.5 M107.25 21.5 C141.02 1.65, 143.75 1.83, 178.75 21.5" stroke="#9c36b5" stroke-width="1" fill="none"></path></g><g transform="translate(885.4249992370605 167.5) rotate(0 55.07500076293945 37.5)"><text x="55.07500076293945" y="0" font-family="Virgil, Segoe UI Emoji" font-size="20px" fill="#9c36b5" text-anchor="middle" style="white-space: pre;" direction="ltr" dominant-baseline="text-before-edge">SolarThing </text><text x="55.07500076293945" y="25" font-family="Virgil, Segoe UI Emoji" font-size="20px" fill="#9c36b5" text-anchor="middle" style="white-space: pre;" direction="ltr" dominant-baseline="text-before-edge">PVOutput </text><text x="55.07500076293945" y="50" font-family="Virgil, Segoe UI Emoji" font-size="20px" fill="#9c36b5" text-anchor="middle" style="white-space: pre;" direction="ltr" dominant-baseline="text-before-edge">Uploader</text></g><g stroke-linecap="round"><g transform="translate(853.8321484971118 379.42833803281906) rotate(0 7.295909596163085 -63.93084876052228)"><path d="M-0.52 0.91 C2.17 -20.72, 12.45 -107.06, 15.11 -128.77 M1.41 0.34 C4.04 -21.16, 11.98 -105.72, 14.24 -127.15" stroke="#9c36b5" stroke-width="1" fill="none"></path></g><g transform="translate(853.8321484971118 379.42833803281906) rotate(0 7.295909596163085 -63.93084876052228)"><path d="M23.17 -97.85 C20.09 -103.53, 17.52 -110.31, 13.78 -125.39 M21.58 -97.95 C18.57 -106.14, 17.87 -115.14, 14.77 -126.26" stroke="#9c36b5" stroke-width="1" fill="none"></path></g><g transform="translate(853.8321484971118 379.42833803281906) rotate(0 7.295909596163085 -63.93084876052228)"><path d="M2.75 -99.88 C4.07 -105.04, 5.89 -111.38, 13.78 -125.39 M1.16 -99.97 C4.17 -107.52, 9.49 -115.93, 14.77 -126.26" stroke="#9c36b5" stroke-width="1" fill="none"></path></g></g><mask></mask><g stroke-linecap="round" transform="translate(1261 10) rotate(0 89.5 69)"><path d="M32 0 M32 0 C57.47 -0.39, 80.84 -1.78, 147 0 M32 0 C75.63 0.62, 121.65 0.1, 147 0 M147 0 C168.93 0.96, 180.65 11.5, 179 32 M147 0 C167.63 0.14, 179.45 12.71, 179 32 M179 32 C180.21 60.54, 177.43 87.8, 179 106 M179 32 C179.42 51.36, 179.04 71.27, 179 106 M179 106 C178.93 129.08, 168.3 136.03, 147 138 M179 106 C180.87 129.31, 169.07 139.2, 147 138 M147 138 C107.68 138.9, 68.59 140.05, 32 138 M147 138 C120.12 139.31, 93.6 138.66, 32 138 M32 138 C10.16 138.66, 0.4 129.03, 0 106 M32 138 C12.68 139.21, -0.18 125.99, 0 106 M0 106 C-1.37 77.48, 0.42 52.34, 0 32 M0 106 C-0.13 86.7, 0.12 66.16, 0 32 M0 32 C1.1 9.72, 9.91 1.64, 32 0 M0 32 C-0.4 12.13, 9.03 0.62, 32 0" stroke="#9c36b5" stroke-width="1" fill="none"></path></g><g transform="translate(1289.599998474121 66.5) rotate(0 60.900001525878906 12.5)"><text x="60.900001525878906" y="0" font-family="Virgil, Segoe UI Emoji" font-size="20px" fill="#9c36b5" text-anchor="middle" style="white-space: pre;" direction="ltr" dominant-baseline="text-before-edge">pvoutput.org</text></g><g stroke-linecap="round"><g transform="translate(1013.2690646417427 160.3513099436102) rotate(0 122.01039830797947 -38.062374011741454)"><path d="M1.16 1.12 C41.6 -11.56, 203.12 -62.82, 243.71 -75.6 M0.32 0.66 C40.46 -12.39, 201.9 -64.24, 242.55 -77.24" stroke="#9c36b5" stroke-width="1" fill="none"></path></g><g transform="translate(1013.2690646417427 160.3513099436102) rotate(0 122.01039830797947 -38.062374011741454)"><path d="M220.7 -59.51 C229.59 -65.3, 239.03 -72.97, 241.65 -79.2 M219.23 -58.09 C225.36 -65, 232.71 -69.86, 242.8 -76.33" stroke="#9c36b5" stroke-width="1" fill="none"></path></g><g transform="translate(1013.2690646417427 160.3513099436102) rotate(0 122.01039830797947 -38.062374011741454)"><path d="M214.44 -79.05 C225.86 -77.24, 237.75 -77.24, 241.65 -79.2 M212.97 -77.63 C220.93 -78.61, 230.17 -77.6, 242.8 -76.33" stroke="#9c36b5" stroke-width="1" fill="none"></path></g></g><mask></mask><g stroke-linecap="round"><g transform="translate(217.25000000000006 276.04719093404026) rotate(0 -41.12687020091042 -4.665876806781711)"><path d="M1.05 -0.53 C-12.79 -2.03, -68.79 -8.09, -82.88 -9.63 M0.15 1.8 C-13.79 0.06, -69.28 -8.91, -83.31 -11.13" stroke="#9c36b5" stroke-width="1" fill="none"></path></g><g transform="translate(217.25000000000006 276.04719093404026) rotate(0 -41.12687020091042 -4.665876806781711)"><path d="M-28.96 8.27 C-16.87 4.77, -7.88 2.76, 0.09 0.97 M-28.65 6 C-20.72 5.73, -13.18 2.36, 1.72 0.44" stroke="#9c36b5" stroke-width="1" fill="none"></path></g><g transform="translate(217.25000000000006 276.04719093404026) rotate(0 -41.12687020091042 -4.665876806781711)"><path d="M-26.76 -12.13 C-15.47 -9.16, -7.18 -4.71, 0.09 0.97 M-26.44 -14.4 C-19.27 -9.41, -12.31 -7.49, 1.72 0.44" stroke="#9c36b5" stroke-width="1" fill="none"></path></g><g transform="translate(217.25000000000006 276.04719093404026) rotate(0 -41.12687020091042 -4.665876806781711)"><path d="M-54.74 -15.18 C-61.25 -14.1, -70.8 -12.05, -84.27 -9.63 M-54.43 -17.45 C-61.78 -14.84, -69.42 -14.88, -82.64 -10.16" stroke="#9c36b5" stroke-width="1" fill="none"></path></g><g transform="translate(217.25000000000006 276.04719093404026) rotate(0 -41.12687020091042 -4.665876806781711)"><path d="M-57.98 5.08 C-63.35 -0.28, -71.87 -4.63, -84.27 -9.63 M-57.66 2.81 C-63.99 0.21, -70.79 -5.08, -82.64 -10.16" stroke="#9c36b5" stroke-width="1" fill="none"></path></g></g><mask></mask><g stroke-linecap="round"><g transform="translate(134.75 185.88674384817125) rotate(0 39.77074597561264 -18.49514129958851)"><path d="M0.95 0.33 C14.1 -5.44, 66.54 -29.2, 79.55 -35.41 M-0.01 -0.54 C12.88 -6.61, 64.79 -31.38, 78.36 -37.32" stroke="#9c36b5" stroke-width="1" fill="none"></path></g><g transform="translate(134.75 185.88674384817125) rotate(0 39.77074597561264 -18.49514129958851)"><path d="M22.97 -21.38 C15.3 -14.61, 5.1 -3.6, 1.98 -0.61 M22.34 -19.69 C15.88 -13.15, 8.06 -5.97, 1.41 0.89" stroke="#9c36b5" stroke-width="1" fill="none"></path></g><g transform="translate(134.75 185.88674384817125) rotate(0 39.77074597561264 -18.49514129958851)"><path d="M31.42 -2.68 C20.86 -2.5, 7.65 1.85, 1.98 -0.61 M30.79 -0.99 C21.29 -1.03, 10.5 -0.41, 1.41 0.89" stroke="#9c36b5" stroke-width="1" fill="none"></path></g><g transform="translate(134.75 185.88674384817125) rotate(0 39.77074597561264 -18.49514129958851)"><path d="M57.6 -16.97 C65.43 -25.51, 70.46 -29.49, 79.39 -38.27 M56.97 -15.29 C65.34 -23.37, 72.52 -30.95, 78.83 -36.76" stroke="#9c36b5" stroke-width="1" fill="none"></path></g><g transform="translate(134.75 185.88674384817125) rotate(0 39.77074597561264 -18.49514129958851)"><path d="M49.02 -35.61 C59.79 -37.59, 67.87 -34.92, 79.39 -38.27 M48.39 -33.93 C59.85 -35.45, 70.04 -36.49, 78.83 -36.76" stroke="#9c36b5" stroke-width="1" fill="none"></path></g></g><mask></mask></svg>